Patient4_TMGait_0pt7_02_left_44_EMG.mot
version=1
nRows=37
nColumns=33
inDegrees=no
endheader
time	1LAddLong	2LGlutMax	3LGlutMed	4LIliopsoas	5LSemiMemb	6LBicFemLong	7LRecFem	8LVastMed	9LVastLat	10LGasMed	11LTibAnt	12lTibPost	13LPeroneusLong	14LSol	15LExtDigLong	16LFlexDigLong	17RAddLong	18RGlutMax	19RGlutMed	20RIliopsoas	21RSemiMemb	22RBicFemLong	23RRecFem	24RVastMed	25RVastLat	26RGasMed	27RTibAnt	28RTibPost	29RPeroneusLong	30RSol	31RExtDigLong	32RFlexDigLong
50.39	-0.013123	0.46829	-0.041962	0.003052	-0.011139	-0.027771	-0.028839	0.004578	0.13168	0.03006	-0.052795	0.004883	-0.009918	0.023804	0.020142	-0.022278	0.030365	-0.34576	0.067902	-0.041351	0.048523	0.36682	-0.077515	0.093994	0.02243	0.009918	0.071716	-0.000458	-1.0367	-0.18036	-0.000458	-0.007629
50.391	-0.00946	0.45258	-0.055695	0.009766	-0.016632	0.001678	-0.053711	0.010834	0.14374	-0.002289	-0.022736	0.008087	0.024719	-0.005341	-0.21988	-0.022736	0.035248	-0.46768	-0.24475	-0.010834	0.066376	0.11383	-0.16449	0.063629	0.067902	-0.012512	0.10941	-0.022278	-0.7193	0.13825	0.002136	-0.011597
50.392	-0.010681	0.43823	-0.0383	0.002594	-0.02121	-0.011749	-0.068207	0.013275	0.1474	-0.010986	0.034485	0.005188	0.000916	-0.044708	0.37354	-0.030975	0.027313	-0.62012	-0.6485	-0.096893	0.021515	-0.11581	-0.14862	-0.055084	-0.019531	-0.03418	-0.053101	-0.020294	2.4908	0.28076	-0.000153	-0.004425
50.393	-0.002594	0.42648	-0.039368	0.028839	-0.021057	-0.032806	-0.13229	0.004425	0.16296	-0.063934	0.061951	0.016937	0.022125	0.047455	0.12192	-0.037842	0.04715	-0.56747	-0.37064	-0.16571	-0.16327	-0.37354	-0.085907	-0.11688	-0.060272	-0.072937	0.02655	-0.022278	1.7032	0.21118	-0.005188	-0.001221
50.394	0.000305	0.40436	-0.042572	0.024567	-0.016632	-0.034943	-0.20218	0.010223	0.17685	-0.070801	0.19333	0.002289	0.034637	0.066071	0.60898	-0.022125	0.072021	-0.4364	-0.080872	-0.23743	-0.36346	-0.34744	-0.026855	-0.17456	0.23697	-0.075378	0.14343	0.003662	-0.69672	-0.036316	-0.003662	-0.007782
50.395	0.002136	0.38498	-0.093231	0.021667	-0.018768	-0.019836	-0.2153	0.007324	0.18967	-0.099487	0.18402	0.01297	0.045624	0.1358	-0.17822	-0.032959	0.069275	-0.38208	-0.18677	-0.2153	-0.5368	-0.336	0.072937	-0.14572	0.4361	-0.079193	-0.1001	0.006104	-1.6319	-0.1651	-0.002747	-0.008087
50.396	-0.002594	0.37384	-0.081635	0.00473	-0.018463	-0.007172	-0.25986	0.010834	0.19424	-0.10544	0.1944	0.003052	0.04303	0.18234	-0.27893	-0.028076	-0.016785	-0.37582	-0.4921	-0.10605	0.17273	-0.32272	0.21591	-0.16373	0.66834	-0.074768	-0.14587	-0.031433	-0.49774	-0.076904	0.000458	-0.007019
50.397	-0.002441	0.36041	-0.07782	0.008698	-0.02243	0.009766	-0.26916	0.003052	0.20783	-0.053253	0.013428	0.006104	0.1033	0.17822	-0.20874	-0.039368	-0.067444	-0.35019	-0.49255	-0.049591	0.30456	-0.29114	0.31403	-0.1001	0.62271	0.009003	0.043793	-0.040283	-0.19455	-0.036469	-0.003052	-0.011902
50.398	0.002441	0.31616	-0.03891	0.006104	-0.024109	-0.005493	-0.21408	0.003357	0.21835	-0.024719	-0.21149	0.009918	0.10437	0.18494	-0.21225	-0.035095	-0.047455	-0.30792	-0.36301	0.083923	0.024719	-0.3891	0.30212	-0.072174	0.51544	0.16998	0.006561	-0.048981	-0.020752	0.14999	-0.007324	-0.007019
50.399	0.000458	0.39215	-0.022736	0.009766	-0.019989	-0.025635	-0.18951	0.005798	0.22446	0.016174	-0.055847	0.010681	0.030212	0.10452	-0.35233	-0.036011	-0.03952	-0.19257	0.00946	0.35477	-0.024109	-0.27557	0.20126	-0.088806	0.31174	0.092621	0.019989	-0.034027	0.37872	0.401	-0.002136	-0.008392
50.4	0.007477	0.39627	-0.076904	0.010834	-0.020447	-0.035248	-0.18585	0.003052	0.2301	0.055237	-0.074005	0.009918	-0.019379	-0.11536	-0.32013	-0.048218	-0.033264	-0.16998	0.34637	0.54153	0.084381	0.34775	0.17212	0.041809	-0.053101	-0.068665	0.003815	0.092316	0.392	0.28458	-0.005341	-0.001373
50.401	0.000916	0.41138	-0.054321	0.005798	-0.01236	-0.052948	-0.18249	0.002441	0.22827	0.029449	-0.14725	0.007324	0.006256	-0.23743	-0.095673	-0.034637	-0.041199	-0.15808	-0.12436	0.37735	0.04715	0.31067	-0.23102	0.046082	-0.40161	-0.10269	-0.030518	0.008087	0.39063	0.15549	-0.003357	-0.002594
50.402	-0.00351	0.48386	-0.049286	-0.009003	-0.014954	-0.071716	-0.18738	0.002899	0.23056	-0.013428	-0.16495	0.011749	0.025635	-0.25024	-0.08255	-0.024872	-0.043335	-0.11459	-0.38361	0.16754	0.02594	-0.067749	-0.35019	0.019379	-0.66773	-0.0914	-0.034943	-0.017395	0.62378	-0.015106	-0.002747	0.002594
50.403	0.000153	0.51453	-0.041504	-0.002441	-0.007629	-0.10162	-0.19196	0.005035	0.224	-0.026093	-0.1358	0.007629	-0.007935	-0.23651	0.27069	-0.017242	-0.031891	-0.16953	-0.48584	0.050507	0.018311	-0.20401	-0.007172	-0.057526	-0.68161	-0.045013	0.010376	-0.02121	0.14694	-0.11765	0.001526	-0.001068
50.404	0.007629	0.55389	-0.069885	-0.004883	-0.01358	-0.06485	-0.17029	0.013733	0.22232	-0.068512	-0.083313	0.01236	-0.008545	-0.1831	-0.031586	-0.017853	-0.007019	-0.14114	-0.55206	0.051575	0.024719	-0.14343	0.17319	-0.085144	-0.65369	-0.029449	0.001678	-0.017395	-0.35614	-0.11734	0.001984	0.00473
50.405	0.003052	0.62103	-0.058746	0.023804	-0.024109	-0.067596	-0.18112	0.003967	0.21622	-0.093384	0.017548	0.010681	-0.03418	-0.14053	-0.074158	-0.007629	0.018463	-0.043335	0.063934	0.015564	-0.024261	-0.17487	0.21118	-0.10605	-0.41077	-0.017548	0.039368	-0.020752	-0.81528	-0.061035	-0.002136	-0.001526
50.406	-0.007935	0.62897	-0.062256	0.016632	-0.023041	-0.06012	-0.16419	0.009308	0.20706	-0.11581	0.16922	0.013123	-0.087433	-0.077515	0.009155	-0.01236	0.006866	-0.046539	0.19165	-0.020142	-0.074005	-0.14847	0.06546	0.029602	-0.12482	-0.051727	0.097351	-0.012054	-1.0515	-0.1648	-0.001221	-0.006714
50.407	-0.002899	0.62943	0.00061	0.011597	-0.02121	-0.070038	-0.14084	0.011597	0.19608	-0.075836	0.22095	0.017548	-0.024414	-0.004578	0.026398	-0.000916	0.00885	-0.053406	0.37384	-0.053711	-0.11383	0.052338	-0.14114	0.071259	-0.032654	-0.020447	0.10681	0	-0.56686	-0.27039	-0.001373	-0.00412
50.408	0.008545	0.62912	-0.002289	0.025024	-0.025635	-0.043793	-0.16983	0.007324	0.20172	-0.098724	0.16174	0.00885	0.058899	-0.040283	0.22827	0.007172	0.005798	0.043182	0.38223	-0.11093	-0.15243	0.10056	-0.18341	0.051422	-0.04837	0.039215	0.088196	-0.025787	0.3569	-0.1651	-0.000305	-0.005188
50.409	-0.001221	0.6308	-0.00824	-0.00473	-0.021973	-0.053558	-0.16464	0.006104	0.2066	-0.048218	-0.12161	0.007629	0.041656	-0.14221	0.20264	0.002289	0.019684	0.11047	-0.005035	-0.16586	-0.12787	0.45883	0.026398	-0.019684	-0.070801	-0.034027	0.027161	-0.35446	0.76767	-0.26123	0.000763	-0.00824
50.41	0.002594	0.63217	-0.058899	-0.007324	-0.024414	-0.078583	-0.15533	0.000305	0.20218	-0.019226	-0.091248	0.009613	0.026245	-0.090332	0.18463	0.006866	0.015106	0.003662	-0.085297	-0.16953	-0.056	0.50766	0.11658	-0.012512	-0.12253	-0.11902	-0.005951	-0.11505	0.28	-0.47882	-0.001221	-0.003052
50.411	-0.000305	0.6015	-0.019531	0.001221	-0.027924	-0.066376	-0.13825	0.005188	0.19638	0.010223	-0.12772	0.00946	0.041351	-0.027771	0.000763	0.008087	-0.013428	0.005035	-0.0383	-0.018768	0.07019	0.27435	0.18494	-0.027008	-0.17029	-0.10956	-0.095215	0.18982	0.36789	-0.40237	-0.005341	-0.004578
50.412	-0.004578	0.56198	0.032806	0.016174	-0.028381	-0.055542	-0.11932	0.005188	0.18234	0.05127	-0.069275	0.009918	0.030823	0.019684	-0.05661	0.003967	-0.010834	0.047913	-0.077057	0.093994	0.10696	0.1149	0.22644	-0.085754	-0.17883	-0.14481	0.030518	0.35736	-0.001526	-0.10849	0.000763	-0.014648
50.413	0.001678	0.50003	-0.000153	0.041504	-0.023804	-0.059509	-0.10742	0.009613	0.18036	0.053406	0.00061	0.00473	-0.013428	-0.002136	0.030212	0.006866	-0.018921	0.052338	-0.11383	0.10849	0.076294	0.088806	0.09613	-0.17181	-0.1236	-0.091248	-0.00946	0.13641	-0.37918	0.23499	-0.001678	-0.00351
50.414	0.003357	0.40985	-0.017395	0.051727	-0.025787	-0.05661	-0.10971	0.011749	0.18234	0.040283	-0.027618	0.009308	0.00885	-0.016174	0.061646	0.006104	-0.013275	0.098724	0.024109	0.01236	0.037537	0.02533	0.14862	-0.061035	-0.10056	0.032501	0.046997	0.10315	-0.51117	0.56732	-0.006104	-0.00885
50.415	-0.007629	0.28244	-0.020905	0.018005	-0.03067	-0.037231	-0.090027	0.010376	0.17883	0.026398	-0.082703	0.007782	0.047302	-0.15869	0.17563	0.011292	0.00473	0.024109	-0.30075	-0.035858	0.002441	-0.054321	0.10056	0.048828	-0.12405	0.17242	-0.056915	0.088043	0.093994	0.4068	0.001526	-0.013428
50.416	-0.010529	0.21484	-0.037842	-0.012512	-0.033722	-0.039978	-0.079803	0.019836	0.15472	0.029297	-0.083466	0.005341	0.022278	-0.18906	-0.11383	0.026093	0.000305	0.022278	-0.70618	-0.023193	0.006714	-0.14984	-0.15793	0.021973	-0.096893	0.14557	-0.16602	-0.050507	-0.29739	-0.034637	-0.003662	-0.012054
50.417	-0.00824	0.15671	-0.033722	-0.014648	-0.026245	-0.037689	-0.070496	0.011597	0.15762	0.012054	-0.010071	0.001678	-0.001068	-0.074768	0.41321	0.029144	0.000305	0.087585	-0.41168	0.072479	0.012817	-0.20798	-0.3479	0.084229	0.017853	0.11826	-0.097198	-0.083313	-0.16251	0.15717	-0.000916	-0.002594
50.418	-0.009766	0.11704	-0.006714	-0.003204	-0.024719	-0.033112	-0.057678	0.010529	0.15503	-0.02533	0.074463	0.000763	0.007172	0.045776	0.14175	0.027924	0.011902	0.18845	-0.21851	0.005951	-0.04364	-0.50583	-0.14572	0.10956	0.12573	0.070801	-0.075989	0.023804	0.21316	0.3096	0.004578	0.002136
50.419	-0.005798	0.10132	0.019684	0.010071	-0.036469	-0.006104	-0.062866	0.009155	0.14236	-0.053406	0.13794	0.004578	0.07309	0.12817	0.11139	0.038147	0.00885	0.14862	0.53146	-0.1297	-0.070343	-0.7634	0.039978	0.11261	0.13077	0.030365	0.14282	-0.005188	-1.9389	-0.074921	-0.00061	0.002441
50.42	-0.003052	0.010071	0.005035	0.006866	-0.035706	-0.004425	-0.062561	0.004425	0.13641	-0.054321	0.11917	0.004578	0.078583	0.14908	-0.55267	0.036316	0.027008	0.055389	0.096436	-0.10315	-0.10651	-0.79147	-0.095367	0.18158	0.15274	0.016785	0.014954	-0.030975	-1.3257	-0.1947	0.000458	0.00351
50.421	0.00412	-0.066833	-0.006714	0.016479	-0.044098	-0.012207	-0.051422	0.000916	0.13931	-0.026245	0.15091	0.00351	-0.002136	0.057678	-0.47546	0.028381	0.003815	-0.079803	-0.35645	-0.036926	-0.10803	-0.52933	-0.36346	0.17914	0.21194	0.022736	-0.17273	-0.02121	2.8743	-0.12039	0.000458	0.004272
50.422	0.003357	-0.15243	-0.002594	0.005646	-0.056458	-0.036316	-0.057831	0.014801	0.11734	-0.020142	0.14725	0.002594	-0.018616	-0.028381	-0.088959	0.031433	0.020447	-0.082397	-0.61569	-0.016632	-0.11749	-0.17197	-0.21805	0.11551	0.24353	0.016022	0.005035	-0.027924	1.4665	0.068359	0.000763	0.002441
50.423	-0.005798	-0.15732	-0.020142	0.004578	-0.027771	-0.018005	-0.049438	0.01297	0.1178	-0.012054	-0.011749	0.004578	0.021515	-0.03479	0.24902	0.035706	0.017242	-0.14008	-0.75317	-0.026245	-0.14694	0.090942	-0.050507	0.043488	0.21179	0.020294	-0.098267	-0.025787	3.7198	-0.24963	-0.000305	0.005341
50.424	-0.005951	-0.18753	0.005951	-0.004883	-0.039673	-0.026398	-0.055695	0.014648	0.1059	0.017395	-0.19486	-0.002289	0.017853	-0.086823	-0.30319	0.034637	0.00412	-0.12253	-0.63019	-0.025024	-0.14404	0.14435	0.005188	0.067749	0.13397	0.016937	-0.085907	-0.027008	0.64346	-0.21286	0	0.006866
50.425	-0.005188	-0.16342	0.005035	-0.004578	-0.025024	-0.043945	-0.046692	0.028381	0.098877	0.00473	-0.17303	-0.00473	0.029144	-0.10025	-0.26489	0.035706	0.005188	-0.22705	-0.51163	-0.022888	-0.064087	0.34088	-0.10162	0.063629	0.10376	0.006714	-0.11154	-0.024109	-1.4555	-0.3186	-0.000458	0.010681
50.426	-0.00946	-0.21927	-0.022736	-0.00061	-0.013733	-0.058594	-0.065918	0.016785	0.1091	-0.011292	-0.15915	-0.00351	0.049896	-0.032043	0.242	0.032654	0.004425	-0.29083	-0.19943	-0.041351	-0.000153	0.7489	-0.092621	0.021057	0.12573	-0.005493	0.12558	-0.025024	-1.8152	0.091553	-0.00061	-0.00824
